M48
;Layer_Color=9474304
;FILE_FORMAT=2:4
INCH,LZ
;TYPE=PLATED
T1F00S00C0.0250
T2F00S00C0.0276
T3F00S00C0.0295
T4F00S00C0.0315
T5F00S00C0.0335
T6F00S00C0.0354
T7F00S00C0.0394
T8F00S00C0.0472
T9F00S00C0.1417
%
T01
X024Y013
X016929Y014893
X014377Y0157
X0124Y0105
X00375Y0101
X0224Y021
T02
X015441Y0029
X017Y0028
X0187Y0025
X0207
X0256Y0024
Y0014
Y0034
X025Y011
X027
X0229
X0209
X0179Y0112
X0246Y0157
Y0167
Y0177
X0133Y018
Y016
X0159Y0112
X0154Y0083
X017
Y0063
Y0048
X015441Y0049
X0154Y0063
X0078Y0112
X0058
X0042
X0022
X002813Y015461
Y016661
X004813
Y015461
X016Y0232
Y0252
X019Y0265
X021
X0218Y0193
X0198
T03
X0152Y0168
Y0173
Y0178
T04
X023Y0015
Y002
Y0025
T05
X0247Y0049
X0264Y005
Y009
X0247Y0089
X0229Y0131
X0214Y0127
X0229Y0171
X0223Y0182
X0183
X0174Y0127
X0131Y0112
X0091
X013Y0192
X0149Y0213
Y0253
X017Y0192
X0214Y022
Y024
X0254
Y022
T06
X011Y003016
X0186Y0051
Y0061
Y0071
X0183Y0143
X0193
X0203
X0213
Y0173
X0203
X0193
X0183
X0265Y017
Y018
X0266Y0148
Y0138
Y0128
X016278Y0123
X016556Y0139
X0138
X013522Y0123
X0116Y0142
Y0152
Y0162
Y0172
Y0182
X0086
Y0172
Y0162
Y0152
Y0142
X006578Y0078
Y0063
Y0047
Y0032
X003822
Y0047
Y0063
Y0078
X0026
Y0068
Y0058
X011Y004984
X001Y0185
Y0195
Y0205
Y0215
Y0225
Y0235
Y0245
Y0255
Y0265
Y0275
X0086Y0222
Y0212
Y0202
Y0192
X0116
Y0202
Y0212
Y0222
X0133Y021322
Y024078
X0173Y0254
Y0224
X0183
X0193
X0203
Y0254
X0193
X0183
X027Y024
Y023
Y022
X0265Y019
T07
X0205Y0058
Y0068
Y0078
X013Y008
X012
X011
X006613Y015339
Y017261
T08
X014741Y0013
X018859
T09
X0015Y0015
X0258Y027
M30
