G04*
G04 #@! TF.GenerationSoftware,Altium Limited,Altium Designer,20.0.13 (296)*
G04*
G04 Layer_Color=128*
%FSLAX24Y24*%
%MOIN*%
G70*
G01*
G75*
%ADD55C,0.0050*%
D55*
X15862Y23200D02*
X16138D01*
X16000Y23062D02*
Y23338D01*
X15862Y25200D02*
X16138D01*
X16000Y25062D02*
Y25338D01*
X21233Y24000D02*
X21567D01*
X21400Y23833D02*
Y24167D01*
X25233Y24000D02*
X25567D01*
X25400Y23833D02*
Y24167D01*
X17123Y22400D02*
X17477D01*
X17300Y22223D02*
Y22577D01*
X18123Y22400D02*
X18477D01*
X18300Y22223D02*
Y22577D01*
X19123Y22400D02*
X19477D01*
X19300Y22223D02*
Y22577D01*
X20123Y22400D02*
X20477D01*
X20300Y22223D02*
Y22577D01*
X17123Y25400D02*
X17477D01*
X17300Y25223D02*
Y25577D01*
X18123Y25400D02*
X18477D01*
X18300Y25223D02*
Y25577D01*
X19123Y25400D02*
X19477D01*
X19300Y25223D02*
Y25577D01*
X20123Y25400D02*
X20477D01*
X20300Y25223D02*
Y25577D01*
X25233Y22000D02*
X25567D01*
X25400Y21833D02*
Y22167D01*
X21233Y22000D02*
X21567D01*
X21400Y21833D02*
Y22167D01*
X13123Y21322D02*
X13477D01*
X13300Y21145D02*
Y21499D01*
X13123Y24078D02*
X13477D01*
X13300Y23901D02*
Y24255D01*
X22733Y17100D02*
X23067D01*
X22900Y16933D02*
Y17267D01*
X22733Y13100D02*
X23067D01*
X22900Y12933D02*
Y13267D01*
X17233Y12700D02*
X17567D01*
X17400Y12533D02*
Y12867D01*
X21233Y12700D02*
X21567D01*
X21400Y12533D02*
Y12867D01*
X20762Y11000D02*
X21038D01*
X20900Y10862D02*
Y11138D01*
X22762Y11000D02*
X23038D01*
X22900Y10862D02*
Y11138D01*
X26423Y14800D02*
X26777D01*
X26600Y14623D02*
Y14977D01*
X26423Y13800D02*
X26777D01*
X26600Y13623D02*
Y13977D01*
X26423Y12800D02*
X26777D01*
X26600Y12623D02*
Y12977D01*
X26323Y17000D02*
X26677D01*
X26500Y16823D02*
Y17177D01*
X26323Y18000D02*
X26677D01*
X26500Y17823D02*
Y18177D01*
X26323Y19000D02*
X26677D01*
X26500Y18823D02*
Y19177D01*
X13162Y18000D02*
X13438D01*
X13300Y17862D02*
Y18138D01*
X13162Y16000D02*
X13438D01*
X13300Y15862D02*
Y16138D01*
X15052Y16800D02*
X15348D01*
X15200Y16652D02*
Y16948D01*
X15052Y17300D02*
X15348D01*
X15200Y17152D02*
Y17448D01*
X15052Y17800D02*
X15348D01*
X15200Y17652D02*
Y17948D01*
X13623Y13900D02*
X13977D01*
X13800Y13723D02*
Y14077D01*
X16379Y13900D02*
X16733D01*
X16556Y13723D02*
Y14077D01*
X13345Y12300D02*
X13699D01*
X13522Y12123D02*
Y12477D01*
X16101Y12300D02*
X16455D01*
X16278Y12123D02*
Y12477D01*
X8423Y22200D02*
X8777D01*
X8600Y22023D02*
Y22377D01*
X8423Y21200D02*
X8777D01*
X8600Y21023D02*
Y21377D01*
X8423Y20200D02*
X8777D01*
X8600Y20023D02*
Y20377D01*
X8423Y19200D02*
X8777D01*
X8600Y19023D02*
Y19377D01*
X8423Y18200D02*
X8777D01*
X8600Y18023D02*
Y18377D01*
X8423Y17200D02*
X8777D01*
X8600Y17023D02*
Y17377D01*
X8423Y16200D02*
X8777D01*
X8600Y16023D02*
Y16377D01*
X8423Y15200D02*
X8777D01*
X8600Y15023D02*
Y15377D01*
X8423Y14200D02*
X8777D01*
X8600Y14023D02*
Y14377D01*
X11423Y22200D02*
X11777D01*
X11600Y22023D02*
Y22377D01*
X11423Y21200D02*
X11777D01*
X11600Y21023D02*
Y21377D01*
X11423Y20200D02*
X11777D01*
X11600Y20023D02*
Y20377D01*
X11423Y19200D02*
X11777D01*
X11600Y19023D02*
Y19377D01*
X11423Y18200D02*
X11777D01*
X11600Y18023D02*
Y18377D01*
X11423Y17200D02*
X11777D01*
X11600Y17023D02*
Y17377D01*
X11423Y16200D02*
X11777D01*
X11600Y16023D02*
Y16377D01*
X11423Y15200D02*
X11777D01*
X11600Y15023D02*
Y15377D01*
X11423Y14200D02*
X11777D01*
X11600Y14023D02*
Y14377D01*
X6417Y17261D02*
X6810D01*
X6613Y17064D02*
Y17457D01*
X6417Y15339D02*
X6810D01*
X6613Y15143D02*
Y15536D01*
X16862Y4800D02*
X17138D01*
X17000Y4662D02*
Y4938D01*
X16862Y2800D02*
X17138D01*
X17000Y2662D02*
Y2938D01*
X15303Y2900D02*
X15579D01*
X15441Y2762D02*
Y3038D01*
X15303Y4900D02*
X15579D01*
X15441Y4762D02*
Y5038D01*
X2423Y7800D02*
X2777D01*
X2600Y7623D02*
Y7977D01*
X2423Y6800D02*
X2777D01*
X2600Y6623D02*
Y6977D01*
X2423Y5800D02*
X2777D01*
X2600Y5623D02*
Y5977D01*
X14505Y1300D02*
X14977D01*
X14741Y1064D02*
Y1536D01*
X18623Y1300D02*
X19095D01*
X18859Y1064D02*
Y1536D01*
X25091Y27000D02*
X26509D01*
X25800Y26291D02*
Y27709D01*
X791Y1500D02*
X2209D01*
X1500Y791D02*
Y2209D01*
X823Y18500D02*
X1177D01*
X1000Y18323D02*
Y18677D01*
X823Y19500D02*
X1177D01*
X1000Y19323D02*
Y19677D01*
X823Y21500D02*
X1177D01*
X1000Y21323D02*
Y21677D01*
X823Y22500D02*
X1177D01*
X1000Y22323D02*
Y22677D01*
X823Y23500D02*
X1177D01*
X1000Y23323D02*
Y23677D01*
X823Y24500D02*
X1177D01*
X1000Y24323D02*
Y24677D01*
X823Y25500D02*
X1177D01*
X1000Y25323D02*
Y25677D01*
X823Y26500D02*
X1177D01*
X1000Y26323D02*
Y26677D01*
X823Y27500D02*
X1177D01*
X1000Y27323D02*
Y27677D01*
X823Y20500D02*
X1177D01*
X1000Y20323D02*
Y20677D01*
X14733Y21300D02*
X15067D01*
X14900Y21133D02*
Y21467D01*
X14733Y25300D02*
X15067D01*
X14900Y25133D02*
Y25467D01*
X25462Y1400D02*
X25738D01*
X25600Y1262D02*
Y1538D01*
X25462Y2400D02*
X25738D01*
X25600Y2262D02*
Y2538D01*
X25462Y3400D02*
X25738D01*
X25600Y3262D02*
Y3538D01*
X20862Y26500D02*
X21138D01*
X21000Y26362D02*
Y26638D01*
X18862Y26500D02*
X19138D01*
X19000Y26362D02*
Y26638D01*
X21123Y17300D02*
X21477D01*
X21300Y17123D02*
Y17477D01*
X20123Y17300D02*
X20477D01*
X20300Y17123D02*
Y17477D01*
X19123Y17300D02*
X19477D01*
X19300Y17123D02*
Y17477D01*
X18123Y17300D02*
X18477D01*
X18300Y17123D02*
Y17477D01*
X21123Y14300D02*
X21477D01*
X21300Y14123D02*
Y14477D01*
X20123Y14300D02*
X20477D01*
X20300Y14123D02*
Y14477D01*
X19123Y14300D02*
X19477D01*
X19300Y14123D02*
Y14477D01*
X18123Y14300D02*
X18477D01*
X18300Y14123D02*
Y14477D01*
X24462Y17700D02*
X24738D01*
X24600Y17562D02*
Y17838D01*
X24462Y16700D02*
X24738D01*
X24600Y16562D02*
Y16838D01*
X24462Y15700D02*
X24738D01*
X24600Y15562D02*
Y15838D01*
X17762Y11200D02*
X18038D01*
X17900Y11062D02*
Y11338D01*
X15762Y11200D02*
X16038D01*
X15900Y11062D02*
Y11338D01*
X7662Y11200D02*
X7938D01*
X7800Y11062D02*
Y11338D01*
X5662Y11200D02*
X5938D01*
X5800Y11062D02*
Y11338D01*
X2676Y15461D02*
X2951D01*
X2813Y15323D02*
Y15598D01*
X4676Y15461D02*
X4951D01*
X4813Y15323D02*
Y15598D01*
X2676Y16661D02*
X2951D01*
X2813Y16523D02*
Y16798D01*
X4676Y16661D02*
X4951D01*
X4813Y16523D02*
Y16798D01*
X22843Y2500D02*
X23157D01*
X23000Y2343D02*
Y2657D01*
X22843Y2000D02*
X23157D01*
X23000Y1843D02*
Y2157D01*
X22843Y1500D02*
X23157D01*
X23000Y1343D02*
Y1657D01*
X12933Y11200D02*
X13267D01*
X13100Y11033D02*
Y11367D01*
X8933Y11200D02*
X9267D01*
X9100Y11033D02*
Y11367D01*
X2062Y11200D02*
X2338D01*
X2200Y11062D02*
Y11338D01*
X4062Y11200D02*
X4338D01*
X4200Y11062D02*
Y11338D01*
X18562Y2500D02*
X18838D01*
X18700Y2362D02*
Y2638D01*
X20562Y2500D02*
X20838D01*
X20700Y2362D02*
Y2638D01*
X18423Y5100D02*
X18777D01*
X18600Y4923D02*
Y5277D01*
X18423Y6100D02*
X18777D01*
X18600Y5923D02*
Y6277D01*
X18423Y7100D02*
X18777D01*
X18600Y6923D02*
Y7277D01*
X3645Y6300D02*
X3999D01*
X3822Y6123D02*
Y6477D01*
X6401Y6300D02*
X6755D01*
X6578Y6123D02*
Y6477D01*
X6401Y3200D02*
X6755D01*
X6578Y3023D02*
Y3377D01*
X3645Y3200D02*
X3999D01*
X3822Y3023D02*
Y3377D01*
X6401Y4700D02*
X6755D01*
X6578Y4523D02*
Y4877D01*
X3645Y4700D02*
X3999D01*
X3822Y4523D02*
Y4877D01*
X3645Y7800D02*
X3999D01*
X3822Y7623D02*
Y7977D01*
X6401Y7800D02*
X6755D01*
X6578Y7623D02*
Y7977D01*
X26823Y22000D02*
X27177D01*
X27000Y21823D02*
Y22177D01*
X26823Y23000D02*
X27177D01*
X27000Y22823D02*
Y23177D01*
X26823Y24000D02*
X27177D01*
X27000Y23823D02*
Y24177D01*
X16833Y19200D02*
X17167D01*
X17000Y19033D02*
Y19367D01*
X12833Y19200D02*
X13167D01*
X13000Y19033D02*
Y19367D01*
X22133Y18200D02*
X22467D01*
X22300Y18033D02*
Y18367D01*
X18133Y18200D02*
X18467D01*
X18300Y18033D02*
Y18367D01*
X21662Y19300D02*
X21938D01*
X21800Y19162D02*
Y19438D01*
X19662Y19300D02*
X19938D01*
X19800Y19162D02*
Y19438D01*
X26233Y5000D02*
X26567D01*
X26400Y4833D02*
Y5167D01*
X26233Y9000D02*
X26567D01*
X26400Y8833D02*
Y9167D01*
X24862Y11000D02*
X25138D01*
X25000Y10862D02*
Y11138D01*
X26862Y11000D02*
X27138D01*
X27000Y10862D02*
Y11138D01*
X24533Y8900D02*
X24867D01*
X24700Y8733D02*
Y9067D01*
X24533Y4900D02*
X24867D01*
X24700Y4733D02*
Y5067D01*
X20303Y7800D02*
X20697D01*
X20500Y7603D02*
Y7997D01*
X20303Y6800D02*
X20697D01*
X20500Y6603D02*
Y6997D01*
X20303Y5800D02*
X20697D01*
X20500Y5603D02*
Y5997D01*
X10803Y8000D02*
X11197D01*
X11000Y7803D02*
Y8197D01*
X11803Y8000D02*
X12197D01*
X12000Y7803D02*
Y8197D01*
X12803Y8000D02*
X13197D01*
X13000Y7803D02*
Y8197D01*
X10823Y3016D02*
X11177D01*
X11000Y2839D02*
Y3193D01*
X10823Y4984D02*
X11177D01*
X11000Y4807D02*
Y5161D01*
X16862Y6300D02*
X17138D01*
X17000Y6162D02*
Y6438D01*
X16862Y8300D02*
X17138D01*
X17000Y8162D02*
Y8438D01*
X15262Y6300D02*
X15538D01*
X15400Y6162D02*
Y6438D01*
X15262Y8300D02*
X15538D01*
X15400Y8162D02*
Y8438D01*
X23875Y13000D02*
X24125D01*
X24000Y12875D02*
Y13125D01*
X22275Y21000D02*
X22525D01*
X22400Y20875D02*
Y21125D01*
X12275Y10500D02*
X12525D01*
X12400Y10375D02*
Y10625D01*
X14252Y15700D02*
X14502D01*
X14377Y15575D02*
Y15825D01*
X3625Y10100D02*
X3875D01*
X3750Y9975D02*
Y10225D01*
X16804Y14893D02*
X17054D01*
X16929Y14768D02*
Y15018D01*
M02*
